<svg width="400" height="250" viewBox="0 0 400 250" fill="none" xmlns="http://www.w3.org/2000/svg">
<path d="M296.09 205.412C296.09 212.946 290.14 219.05 282.809 219.05C275.478 219.05 269.528 212.94 269.528 205.412C269.528 166.028 238.326 133.986 199.978 133.986C157.704 133.986 133.19 164.923 133.19 205.406C133.19 212.885 126.192 219.05 120.453 219.05C113.075 219.05 106.517 212.043 106.517 205.406C106.517 149.777 146.981 106.705 199.978 106.705C252.975 106.705 296.096 150.984 296.096 205.406L296.09 205.412Z" fill="#DBB8D8"/>
<path d="M199.972 27.2818C295.621 27.2818 373.438 107.191 373.438 205.412C373.438 212.946 379.388 219.05 386.719 219.05C394.05 219.05 400 212.94 400 205.412C400 92.1478 310.265 0 199.966 0C147.438 0 97.8088 20.7465 60.2361 58.4232C22.7233 96.032 1.33124 146.348 0.0043616 200.097C-0.181761 207.625 5.61206 213.889 12.9489 214.081C20.2377 214.266 26.3797 208.322 26.5659 200.788C28.9734 103.492 105.146 27.2818 199.972 27.2818Z" fill="#1C371C"/>
<path d="M199.972 52.3501C117.784 52.3501 50.918 121.014 50.918 205.412V236.362C50.918 243.896 56.8679 250 64.1987 250C71.5296 250 77.4795 243.89 77.4795 236.362V205.412C77.4795 136.058 132.428 79.6257 199.966 79.6257C267.505 79.6257 322.453 136.051 322.453 205.412V236.362C322.453 243.896 328.403 250 335.734 250C343.065 250 349.014 243.89 349.014 236.362V205.412C349.014 121.014 282.148 52.3501 199.96 52.3501H199.972Z" fill="#EF7D4F"/>
</svg>
