<svg width="31" height="31" viewBox="0 0 31 31" fill="none" xmlns="http://www.w3.org/2000/svg">
<g clip-path="url(#clip0_0_81)">
<path d="M14.2083 21.9583C14.2083 22.6687 14.7896 23.25 15.5 23.25C16.2104 23.25 16.7917 22.6687 16.7917 21.9583C16.7917 21.2479 16.2104 20.6667 15.5 20.6667C14.7896 20.6667 14.2083 21.2479 14.2083 21.9583ZM14.2083 3.875V9.04167H16.7917V6.56167C21.1704 7.19458 24.5417 10.9404 24.5417 15.5C24.5417 20.4987 20.4987 24.5417 15.5 24.5417C10.5012 24.5417 6.45833 20.4987 6.45833 15.5C6.45833 13.33 7.22042 11.3408 8.49917 9.79083L15.5 16.7917L17.3212 14.9704L8.53792 6.18708V6.21292C5.70917 8.33125 3.875 11.6896 3.875 15.5C3.875 21.9196 9.0675 27.125 15.5 27.125C21.9196 27.125 27.125 21.9196 27.125 15.5C27.125 9.08042 21.9196 3.875 15.5 3.875H14.2083ZM23.25 15.5C23.25 14.7896 22.6687 14.2083 21.9583 14.2083C21.2479 14.2083 20.6667 14.7896 20.6667 15.5C20.6667 16.2104 21.2479 16.7917 21.9583 16.7917C22.6687 16.7917 23.25 16.2104 23.25 15.5ZM7.75 15.5C7.75 16.2104 8.33125 16.7917 9.04167 16.7917C9.75208 16.7917 10.3333 16.2104 10.3333 15.5C10.3333 14.7896 9.75208 14.2083 9.04167 14.2083C8.33125 14.2083 7.75 14.7896 7.75 15.5Z" fill="black"/>
</g>
<defs>
<clipPath id="clip0_0_81">
<rect width="31" height="31" fill="white"/>
</clipPath>
</defs>
</svg>
