<svg width="1440" height="1024" viewBox="0 0 1440 1024" fill="none" xmlns="http://www.w3.org/2000/svg">
<g clip-path="url(#clip0_3076_2755)">
<rect width="1440" height="1024" fill="#FFFBF1" fill-opacity="0.9"/>
<path d="M2447.11 1820.28C2447.11 1902.53 2382.17 1969.15 2302.14 1969.15C2222.12 1969.15 2157.17 1902.46 2157.17 1820.28C2157.17 1390.36 1816.56 1040.6 1397.96 1040.6C936.499 1040.6 668.905 1378.3 668.905 1820.22C668.905 1901.85 592.507 1969.15 529.866 1969.15C449.327 1969.15 377.737 1892.67 377.737 1820.22C377.737 1212.97 819.448 742.789 1397.96 742.789C1976.48 742.789 2447.18 1226.15 2447.18 1820.22L2447.11 1820.28Z" fill="#DBB8D8" fill-opacity="0.75"/>
<path d="M1397.9 -124.192C2442 -124.192 3291.45 748.101 3291.45 1820.28C3291.45 1902.52 3356.4 1969.15 3436.43 1969.15C3516.45 1969.15 3581.4 1902.45 3581.4 1820.28C3581.4 583.885 2601.85 -422 1397.83 -422C824.428 -422 282.681 -195.531 -127.463 215.747C-536.952 626.285 -770.468 1175.53 -784.952 1762.26C-786.984 1844.44 -723.739 1912.82 -643.65 1914.9C-564.085 1916.92 -497.039 1852.04 -495.007 1769.8C-468.726 707.72 362.77 -124.192 1397.9 -124.192Z" fill="#1C371C" fill-opacity="0.75"/>
<path d="M1397.9 149.458C500.73 149.458 -229.179 898.992 -229.179 1820.28V2158.13C-229.179 2240.37 -164.23 2307 -84.2067 2307C-4.18336 2307 60.766 2240.31 60.766 2158.13V1820.28C60.766 1063.21 660.581 447.198 1397.83 447.198C2135.08 447.198 2734.9 1063.14 2734.9 1820.28V2158.13C2734.9 2240.37 2799.85 2307 2879.87 2307C2959.89 2307 3024.84 2240.31 3024.84 2158.13V1820.28C3024.84 898.992 2294.93 149.458 1397.77 149.458H1397.9Z" fill="#EF7D4F" fill-opacity="0.75"/>
</g>
<defs>
<clipPath id="clip0_3076_2755">
<rect width="1440" height="1024" fill="white"/>
</clipPath>
</defs>
</svg>
