<svg width="102" height="63" viewBox="0 0 102 63" fill="none" xmlns="http://www.w3.org/2000/svg">
<path d="M101.706 44.1237C101.706 48.1272 100.81 55.3997 96.3013 55.3997C91.7921 55.3997 88.4911 63.11 83.3013 62.9988C78.1114 62.8876 77.4387 55 71.3013 55C65.1638 55 58.4428 55.3997 50.3013 55.3997C42.1597 55.3997 37.8135 55.3997 31.8013 55.3997C25.7891 55.3997 24.3135 62.9988 18.3013 62.9988C12.2891 62.9988 11.0619 54 5.80127 54C0.5406 54 0 48.292 0 44.1237C0 20.2964 23.0575 0 50.7279 0C78.3983 0 101.706 20.2964 101.706 44.1237Z" fill="#FFFBF1"/>
</svg>
