<svg width="96" height="60" viewBox="0 0 96 60" fill="none" xmlns="http://www.w3.org/2000/svg">
<path d="M71.0615 49.299C71.0615 51.1072 69.6336 52.5721 67.8742 52.5721C66.1148 52.5721 64.6868 51.1057 64.6868 49.299C64.6868 39.8467 57.1982 32.1568 47.9948 32.1568C37.849 32.1568 31.9657 39.5815 31.9657 49.2975C31.9657 51.0924 30.286 52.5721 28.9088 52.5721C27.138 52.5721 25.564 50.8905 25.564 49.2975C25.564 35.9465 35.2755 25.6091 47.9948 25.6091C60.7141 25.6091 71.063 36.2363 71.063 49.2975L71.0615 49.299Z" fill="#DBB8D8"/>
<path d="M47.9933 6.54763C70.9491 6.54763 89.6252 25.7259 89.6252 49.2989C89.6252 51.1071 91.0532 52.572 92.8126 52.572C94.572 52.572 96 51.1056 96 49.2989C96 22.1155 74.4636 0 47.9919 0C35.385 0 23.4741 4.97916 14.4567 14.0216C5.4536 23.0477 0.319497 35.1234 0.00104678 48.0234C-0.0436227 49.8301 1.34689 51.3335 3.10773 51.3793C4.85705 51.4237 6.33114 49.9973 6.37581 48.1891C6.95363 24.8381 25.2349 6.54763 47.9933 6.54763Z" fill="#1C371C"/>
<path d="M47.9934 12.564C28.2682 12.564 12.2203 29.0433 12.2203 49.2988V56.7268C12.2203 58.535 13.6483 59.9999 15.4077 59.9999C17.1671 59.9999 18.5951 58.5335 18.5951 56.7268V49.2988C18.5951 32.6537 31.7827 19.1101 47.9919 19.1101C64.2012 19.1101 77.3887 32.6523 77.3887 49.2988V56.7268C77.3887 58.535 78.8167 59.9999 80.5761 59.9999C82.3355 59.9999 83.7635 58.5335 83.7635 56.7268V49.2988C83.7635 29.0433 67.7157 12.564 47.9905 12.564H47.9934Z" fill="#EF7D4F"/>
</svg>
